<svg xmlns="http://www.w3.org/2000/svg" viewBox="0 0 337.61 95.41"><defs><style>.cls-1{font-size:11.18px;font-family:Solomon-Light, Solomon;font-weight:300;letter-spacing:0.08em;}.cls-1,.cls-4{fill:#fff;}.cls-2{letter-spacing:0.07em;}.cls-3{letter-spacing:0.08em;}.cls-5{fill:#c79144;}</style></defs><title>1Ativo 3</title><g id="Camada_2" data-name="Camada 2"><g id="Layer_1" data-name="Layer 1"><text class="cls-1" transform="translate(195.86 93.16)">O futu<tspan class="cls-2" x="38" y="0">r</tspan><tspan class="cls-3" x="43.21" y="0">o em suas maos</tspan></text><path class="cls-4" d="M316.27,85.37c.21-.59.49-.76.94-.76s1.05.33,1.43.33.39-.1.56-.4l.38.07c-.21.59-.49.76-.94.76s-1.05-.34-1.43-.34-.39.1-.56.41Z"/><path class="cls-5" d="M17.89,52a1.36,1.36,0,0,1-.89-.6c-1.64-2.88-3.25-5.78-4.87-8.67a1.43,1.43,0,0,1,.08-1.63c1.14-1.81,2.25-3.63,3.35-5.45l5.33-8.77c1.27-2.11,2.55-4.21,3.81-6.32.59-1,.45-1.47-.51-2.3-1.42-1.23-2.93-2.37-4.35-3.6-.52-.46-1.3-.73-1.19-1.73A2.65,2.65,0,0,0,17,10.25a3,3,0,0,0-3.11.15,3.25,3.25,0,0,0-1.26,4,3.21,3.21,0,0,0,3.64,1.81,1.11,1.11,0,0,1,.81.19c1.26,1,2.45,2.07,3.74,3,.56.41.45.76.18,1.19-.58.94-1.18,1.86-1.76,2.8Q14.15,31.74,9.12,40c-.51.85-1.12,1.72-.53,2.79,1.87,3.38,3.75,6.76,5.61,10.15a1.08,1.08,0,0,1,.13.82,3.21,3.21,0,0,0,.15,2.88A3.17,3.17,0,0,0,18,58.22a3.24,3.24,0,0,0,2.46-3.4A3.29,3.29,0,0,0,17.89,52Z"/><path class="cls-5" d="M65,23.46c-.57-.94-1.18-1.86-1.75-2.8-.27-.43-.38-.78.18-1.19,1.28-1,2.48-2,3.73-3a1.12,1.12,0,0,1,.82-.19,3.21,3.21,0,0,0,3.64-1.81,3.26,3.26,0,0,0-1.26-4,3,3,0,0,0-3.12-.15,2.63,2.63,0,0,0-1.69,2.64c.1,1-.67,1.27-1.19,1.73C62.9,15.85,61.39,17,60,18.22c-1,.83-1.1,1.31-.51,2.3l3.82,6.32q2.66,4.39,5.32,8.77c1.11,1.82,2.22,3.64,3.35,5.45A1.45,1.45,0,0,1,72,42.69c-1.63,2.89-3.23,5.79-4.88,8.67a1.32,1.32,0,0,1-.89.6,3.29,3.29,0,0,0-2.6,2.86,3.22,3.22,0,0,0,6,1.86,3.65,3.65,0,0,0,.16-2.88A1.43,1.43,0,0,1,70,53c1.86-3.39,3.75-6.77,5.62-10.15.59-1.07,0-1.94-.54-2.79Q70,31.74,65,23.46Z"/><path class="cls-5" d="M84,41c-2.69-5-5.44-10-8.16-15-.88-1.63-1.72-3.28-2.59-4.91-.3-.55-.18-.88.36-1.21a10.07,10.07,0,0,0,4.29-4.95,9.55,9.55,0,0,0,.54-5.32A17,17,0,0,0,73.65.92c-1.12-1.18-1.74-1.22-3-.16-2.3,2-4.6,4-6.93,6a2.26,2.26,0,0,1-1.33.51l-20.35,0-20.36,0a2.26,2.26,0,0,1-1.33-.51c-2.33-2-4.63-4-6.93-6-1.22-1.06-1.84-1-3,.16A17,17,0,0,0,5.73,9.61a9.55,9.55,0,0,0,.54,5.32,10.07,10.07,0,0,0,4.29,4.95c.54.33.66.66.36,1.21-.87,1.63-1.71,3.28-2.59,4.91C5.61,31,2.86,36,.17,41a1.77,1.77,0,0,0,0,1.41c.92,1.82,1.94,3.6,3,5.38C5.52,52.13,8,56.41,10.42,60.73q3.91,6.93,7.76,13.9a2.55,2.55,0,0,0,2.63,1.49c1.82-.1,3.65,0,5.47,0h1.47c0,1.58,0,3,0,4.48A1.73,1.73,0,0,0,29,82.35c3.7,1.6,7.42,3.16,11.06,4.88a4.8,4.8,0,0,0,2.06.51h0a4.8,4.8,0,0,0,2.06-.51c3.64-1.72,7.36-3.28,11.07-4.88a1.73,1.73,0,0,0,1.2-1.78c0-1.45,0-2.9,0-4.48h1.47c1.82,0,3.65-.07,5.47,0A2.55,2.55,0,0,0,66,74.63q3.84-7,7.76-13.9c2.43-4.32,4.9-8.6,7.34-12.91,1-1.78,2-3.56,3-5.38A1.77,1.77,0,0,0,84,41ZM42.07,10.51H59.15a5.92,5.92,0,0,1-.47.49c-1.52,1.25-3.09,2.43-4.54,3.76-.69.64-.89.36-1.16-.25a2,2,0,0,0-1.89-1.38h-18a2,2,0,0,0-1.89,1.38c-.27.61-.47.89-1.16.25-1.45-1.33-3-2.51-4.54-3.76a5.92,5.92,0,0,1-.47-.49Zm6.76,24c.25,1.52.49,3,.77,4.54.39,2.16.82,4.32,1.24,6.48.32,1.7.65,3.39.95,5.09.09.5.26,1-.42,1.35-3,1.4-5.93,2.84-8.9,4.24a1,1,0,0,1-.39.08,1,1,0,0,1-.4-.08c-3-1.4-5.93-2.84-8.9-4.24-.68-.32-.51-.85-.42-1.35.3-1.7.63-3.39,1-5.09.42-2.16.85-4.32,1.24-6.48.28-1.51.52-3,.77-4.54a1.71,1.71,0,0,0-.79-1.8c-2-1.45-4-2.95-6.06-4.38-.59-.41-.82-.67-.39-1.41,1.14-2,2.16-4.05,3.25-6.07a1.89,1.89,0,0,1,.45-.44c1.4,1.14,2.83,2.29,4.23,3.45s2.67,2.24,4,3.39a1.12,1.12,0,0,1,.38.74q0,6.7,0,13.39a1,1,0,0,1-.26.55,3.34,3.34,0,0,0-1.22,1.8l-.06.17v.05a3.24,3.24,0,0,0,2.46,3.86,3.51,3.51,0,0,0,.8.11h0a3.51,3.51,0,0,0,.8-.11,3.24,3.24,0,0,0,2.46-3.86v-.05l-.06-.17a3.34,3.34,0,0,0-1.22-1.8,1,1,0,0,1-.26-.55q0-6.69,0-13.39a1.12,1.12,0,0,1,.38-.74c1.31-1.15,2.64-2.27,4-3.39l4.23-3.45a1.89,1.89,0,0,1,.45.44c1.09,2,2.11,4.08,3.25,6.07.43.74.2,1-.39,1.41-2,1.43-4,2.93-6.06,4.38A1.71,1.71,0,0,0,48.83,34.48ZM42.08,16.35h0c2.49,0,5,0,7.47,0,.17,0,.39-.07.5,0a2.72,2.72,0,0,1,.75.8c.06.11-.16.47-.34.62l-8.38,7c-2.83-2.34-5.61-4.66-8.39-7-.18-.15-.4-.51-.34-.62a2.72,2.72,0,0,1,.75-.8c.11-.09.33,0,.5,0,2.49,0,5,0,7.47,0h0ZM21.38,72.91a1.09,1.09,0,0,1-.73-.53q-4.27-7.44-8.49-14.91c-2.29-4-4.53-8.12-6.81-12.17-.56-1-1.19-2-1.74-3a1.17,1.17,0,0,1,0-.93c1.55-2.87,3.15-5.71,4.71-8.57,1.3-2.38,2.56-4.78,3.82-7.18.89-1.7,1.75-3.41,2.62-5.11a1.54,1.54,0,0,0-.77-2.38C12,17.19,10.25,16.07,9.32,14A6.81,6.81,0,0,1,9.2,8.75a27.7,27.7,0,0,1,2.31-4.19c.35-.61.68-.69,1.29-.17,5.28,4.49,10.59,8.93,15.88,13.38.34.29.47.49.17,1-1.59,2.81-3.09,5.68-4.61,8.53a1.66,1.66,0,0,0,.63,2.27c2.11,1.57,4.23,3.13,6.39,4.65.59.41.86.72.61,1.52a25.32,25.32,0,0,0-.58,3.37L28.07,37.2l-4.2-2.55a1.53,1.53,0,0,0-2.4.53q-2.19,3.62-4.33,7.26a2.2,2.2,0,0,0,.08,2.32q2.72,4.85,5.46,9.67c.43.77.88,1.52,1.33,2.29a.91.91,0,0,1-.12,1.2c-1.09,1.21-2.12,2.47-3.17,3.72a1.58,1.58,0,0,0-.19,2.25c1.77,2.73,3.57,5.45,5.36,8.18.15.22.27.46.5.86C24.57,72.93,23,73,21.38,72.91Zm9.18-29.4c-.35,1.72-.66,3.45-1,5.17-.18,1-.27,2-.54,2.88a4.13,4.13,0,0,1-.9,1.26c-.51.63-1.06,1.23-1.65,1.91L20.21,43.51l3.17-5.41,2.48,1.47c1.35.81,2.69,1.66,4.06,2.44A1.21,1.21,0,0,1,30.56,43.51ZM29.67,72c-2-3-3.94-6-6-9,2.29-2.71,4.58-5.36,6.81-8.06.35-.43.56-.36.95-.16,2.66,1.3,5.34,2.59,8,3.88A1.3,1.3,0,0,1,40.41,60c-.07,2.85,0,5.71,0,8.57a.94.94,0,0,1-.78,1.06c-3,.93-6,1.85-8.93,2.79A.75.75,0,0,1,29.67,72Zm23,7.92a26.37,26.37,0,0,1-2.42,1.1c-2.6,1.12-5.2,2.25-7.82,3.35a1,1,0,0,1-.36.06,1,1,0,0,1-.37-.06c-2.62-1.1-5.22-2.23-7.82-3.35A26.37,26.37,0,0,1,31.47,80a1.39,1.39,0,0,1-.59-.95A17,17,0,0,1,31,76.16a1.07,1.07,0,0,1,.65-.7C34,74.7,36.3,74,38.61,73.24c.9-.28,1.79-.62,2.71-.85a2.65,2.65,0,0,1,1.51,0c.92.23,1.81.57,2.71.85,2.31.74,4.63,1.46,6.93,2.22a1.08,1.08,0,0,1,.64.7A17,17,0,0,1,53.27,79,1.39,1.39,0,0,1,52.68,80ZM54.48,72a.75.75,0,0,1-1,.4c-3-.94-6-1.86-8.93-2.79a.94.94,0,0,1-.78-1.06c0-2.86.06-5.72,0-8.57a1.3,1.3,0,0,1,.92-1.36c2.67-1.29,5.35-2.58,8-3.88.39-.2.6-.27.95.16,2.23,2.7,4.52,5.35,6.81,8.06C58.42,66.05,56.43,69,54.48,72Zm-.25-30c1.37-.78,2.71-1.63,4.06-2.44l2.48-1.47,3.17,5.41L57.66,54.73c-.59-.68-1.14-1.28-1.65-1.91a4.13,4.13,0,0,1-.9-1.26c-.27-.93-.36-1.92-.54-2.88-.32-1.72-.63-3.45-1-5.17A1.21,1.21,0,0,1,54.23,42Zm26.31.28c-.55,1-1.18,2-1.74,3-2.28,4.05-4.52,8.12-6.81,12.17q-4.21,7.47-8.49,14.91a1.09,1.09,0,0,1-.73.53c-1.6,0-3.19,0-5,0,.23-.4.35-.64.5-.86,1.79-2.73,3.59-5.45,5.36-8.18a1.58,1.58,0,0,0-.19-2.25c-1-1.25-2.08-2.51-3.17-3.72a.91.91,0,0,1-.12-1.2c.45-.77.9-1.52,1.33-2.29q2.75-4.83,5.46-9.67A2.2,2.2,0,0,0,67,42.44q-2.15-3.64-4.33-7.26a1.53,1.53,0,0,0-2.4-.53l-4.2,2.55-3.22,1.93a25.32,25.32,0,0,0-.58-3.37c-.25-.8,0-1.11.61-1.52,2.16-1.52,4.28-3.08,6.39-4.65a1.66,1.66,0,0,0,.63-2.27c-1.52-2.85-3-5.72-4.61-8.53-.3-.53-.17-.73.17-1,5.29-4.45,10.6-8.89,15.88-13.38.61-.52.94-.44,1.29.17A27.7,27.7,0,0,1,75,8.75,6.81,6.81,0,0,1,74.83,14c-.93,2.08-2.69,3.2-4.62,4.13a1.54,1.54,0,0,0-.77,2.38c.87,1.7,1.73,3.41,2.62,5.11,1.26,2.4,2.53,4.8,3.82,7.18,1.56,2.86,3.16,5.7,4.71,8.57A1.17,1.17,0,0,1,80.54,42.29Z"/><path class="cls-5" d="M43.76,31.39a16.37,16.37,0,0,1,2,.56l1.23.41.49-2.75-1.22-.37a15.27,15.27,0,0,0-2.54-.58Z"/><path class="cls-5" d="M44,33.75l-.2,0v2.86a.88.88,0,0,1,.35.73,1,1,0,0,1-.35.8V41a5,5,0,0,0,2.38-.93,3.44,3.44,0,0,0,1.34-2.92C47.47,35.26,46.3,34.14,44,33.75Z"/><path class="cls-5" d="M40.15,35.9l.24,0V33.07a.93.93,0,0,1-.38-.78,1,1,0,0,1,.38-.82V28.62a5.15,5.15,0,0,0-2.39.92,3.39,3.39,0,0,0-1.33,2.89C36.67,34.39,37.83,35.54,40.15,35.9Z"/><path class="cls-5" d="M40.39,38.23a16.14,16.14,0,0,1-2.06-.56l-1.22-.4L36.62,40l1.19.38a14.52,14.52,0,0,0,2.58.57Z"/><path class="cls-4" d="M112.32,58.35a7.82,7.82,0,0,1-1.93.15,6.16,6.16,0,0,1-2.08-.39,3.4,3.4,0,0,1-1.59-1.42,5,5,0,0,1-.67-2.72V43.73h7.5V37.37h-7.5v-6H98.71V53.82a13,13,0,0,0,1.42,6.44,7,7,0,0,0,3.79,3.36,12.48,12.48,0,0,0,5.15.61,19,19,0,0,0,5.7-1.44l-1-4.8C113.32,58.12,112.85,58.24,112.32,58.35Z"/><rect class="cls-4" x="116" y="37.37" width="7.35" height="26.69"/><path class="cls-4" d="M119.77,33.84a3,3,0,0,0,2.25-1,3.17,3.17,0,0,0,0-4.49,3.18,3.18,0,1,0-2.25,5.44Z"/><path class="cls-4" d="M146.22,38.25a16.69,16.69,0,0,0-2.94-.71,18.94,18.94,0,0,0-2.65-.17q-7.59,0-11.83,3.69a12.25,12.25,0,0,0-4.23,9.68,14.5,14.5,0,0,0,.85,5.09,11.63,11.63,0,0,0,2.28,3.85A13.59,13.59,0,0,0,131,62.27a12.82,12.82,0,0,0,3.87,1.45,16.34,16.34,0,0,0,4,.29,11.4,11.4,0,0,0,3.7-.78v1.86a3.66,3.66,0,0,1-2.15,3.33,9.09,9.09,0,0,1-5.22.9,11.3,11.3,0,0,1-5.51-1.93l-3.08,3.48a14,14,0,0,0,5.53,3.72,13.46,13.46,0,0,0,6.22.83A18.53,18.53,0,0,0,144,73.86a10.39,10.39,0,0,0,4.26-3.58,9,9,0,0,0,1.62-5.19V43.34a5.14,5.14,0,0,0-1-3.25A5.29,5.29,0,0,0,146.22,38.25ZM142.54,58a15.15,15.15,0,0,1-5.21.41,5.7,5.7,0,0,1-4-2.27,8.57,8.57,0,0,1-1.56-5.39,7.54,7.54,0,0,1,1.91-5.29,7.81,7.81,0,0,1,8-1.64c.52.31.78,1,.78,2.23Z"/><path class="cls-4" d="M170.43,38.35a12.41,12.41,0,0,0-5.7-1.23,13.77,13.77,0,0,0-9.65,3.63q-4,3.61-4,9.94t3.9,9.94a13.27,13.27,0,0,0,9.47,3.67,13.74,13.74,0,0,0,4.36-.75,11.49,11.49,0,0,0,3.82-2.09L170,57.55l-.54.24a13.2,13.2,0,0,1-1.74.44,12.82,12.82,0,0,1-2.52.25,7.49,7.49,0,0,1-4.29-1.23,5.52,5.52,0,0,1-2.47-3.72h6.27a12.89,12.89,0,0,0,5.83-1.23,8.15,8.15,0,0,0,3.52-3,7.57,7.57,0,0,0-.1-7.89A8.56,8.56,0,0,0,170.43,38.35Zm-2.25,8A2.34,2.34,0,0,1,165.71,48h-7.25a6.17,6.17,0,0,1,2.25-4,6.55,6.55,0,0,1,4.16-1.42,3.72,3.72,0,0,1,2.6.88A2.57,2.57,0,0,1,168.18,46.33Z"/><path class="cls-4" d="M186.77,37.29a14,14,0,0,0-5.68.84,7.3,7.3,0,0,0-3.82,3.42,12.83,12.83,0,0,0-1.38,6.3V64.06h7.35V47.75a4.4,4.4,0,0,1,1-3.09,4.32,4.32,0,0,1,2.3-1.39,10.59,10.59,0,0,1,2.94-.15,13.27,13.27,0,0,1,2.3.3l1,.26,1.08-5A27.94,27.94,0,0,0,186.77,37.29Z"/><path class="cls-4" d="M220.9,37.32c-4.21,0-6.71,1.48-7.49,4.46q-2.49-4.47-8.86-4.46-7.94,0-7.94,6.61V64.06h2.21V44.57c0-2,.48-3.37,1.46-4.12a6.46,6.46,0,0,1,4-1.12q8.72,0,8.72,9.3V64.06h2.2V44.57c0-2,.49-3.37,1.47-4.12a6.46,6.46,0,0,1,4-1.12,11,11,0,0,1,4,.66,7,7,0,0,1,2.57,1.59,6.24,6.24,0,0,1,1.37,2.35,11.68,11.68,0,0,1,.61,2.5,19.52,19.52,0,0,1,.13,2.4V64.06h2.2V47.9a10.89,10.89,0,0,0-2.69-7.67Q226.19,37.32,220.9,37.32Z"/><path class="cls-4" d="M248,37.17a12.49,12.49,0,0,0-9.14,3.72,13.31,13.31,0,0,0-3.74,9.85,13.71,13.71,0,0,0,3.6,9.67,12.93,12.93,0,0,0,18.51,0,13.75,13.75,0,0,0,3.6-9.65,13.27,13.27,0,0,0-3.75-9.82A12.34,12.34,0,0,0,248,37.17ZM255.51,59a10.25,10.25,0,0,1-15.09,0,11.57,11.57,0,0,1-3.11-8.25,11.65,11.65,0,0,1,3.11-8.3,10.25,10.25,0,0,1,15.09,0,11.65,11.65,0,0,1,3.11,8.3A11.57,11.57,0,0,1,255.51,59Z"/><path class="cls-4" d="M273.06,37.37q-8.76,0-8.76,6.61V64.06h2.2V44.62c0-2,.59-3.41,1.76-4.14a8.78,8.78,0,0,1,4.71-1.1,14.1,14.1,0,0,1,5.16.83,6.64,6.64,0,0,1,3.19,2.37,10.36,10.36,0,0,1,1.49,3.21,15.19,15.19,0,0,1,.44,3.82V64.06h2.2V48.63a11.19,11.19,0,0,0-3.06-8.08Q279.33,37.37,273.06,37.37Z"/><path class="cls-4" d="M301.86,37.12a12.48,12.48,0,0,0-9,3.77,13.11,13.11,0,0,0-3.85,9.8,13.55,13.55,0,0,0,3.72,9.6,12.6,12.6,0,0,0,17.1,1.17l-1-1.32a11.78,11.78,0,0,1-6.71,2.11,10.36,10.36,0,0,1-7.3-2.92,11,11,0,0,1-3.48-7.52h9.85a16,16,0,0,0,4-.44q4.8-1.12,5.93-4.75a6.07,6.07,0,0,0-1.27-6.07C308,38.27,305.32,37.12,301.86,37.12Zm6.76,9.46q-1.67,3-7.2,3H291.28a11.07,11.07,0,0,1,3.48-7.54,10.4,10.4,0,0,1,7.35-2.94,7.27,7.27,0,0,1,6.12,2.79A4.1,4.1,0,0,1,308.62,46.58Z"/><path class="cls-4" d="M335.26,37.37l-10,23.07-10-23.07h-2.35L324,63.18l-2.69,6.27a7.47,7.47,0,0,1-2.94,3.65,4.59,4.59,0,0,1-4.31.07l-.54,1.52a6.2,6.2,0,0,0,5.48.37,7.87,7.87,0,0,0,4.26-4.68l14.4-33Z"/></g></g></svg>